<svg width="26" height="26" viewBox="0 0 26 26" fill="none" xmlns="http://www.w3.org/2000/svg">
<path id="Vector" d="M14 23.9461V23.7161C14.6452 23.3719 15.473 23.0527 16.3637 22.8041C17.477 22.4935 18.6101 22.315 19.5 22.315C20.8362 22.315 22.1456 22.4879 23.3244 22.8749L24.6364 23.3056V21.9248V6.9793C24.761 7.04801 24.882 7.12026 25 7.19672V23.1443V23.8563C23.2883 23.0613 21.3422 22.7541 19.5 22.7541C18.3808 22.7541 17.0617 22.972 15.8261 23.3168C15.2029 23.4907 14.5808 23.7025 14 23.9461ZM12 23.1443V23.8214C10.2877 23.0348 8.29786 22.7541 6.5 22.7541C4.82064 22.7541 2.67251 23.2258 1 23.9424V7.1943C2.44865 6.24941 4.47918 5.85162 6.5 5.85162C8.52082 5.85162 10.5513 6.2494 12 7.1943V22.6015V23.1443ZM0.402431 24.1839C0.402542 24.1838 0.405188 24.1829 0.410031 24.1815C0.40474 24.1833 0.40232 24.184 0.402431 24.1839ZM16.3636 17.8021V7.08594L20.2727 3.05217V14.1717L16.3636 17.8021Z" fill="#EFEFEF" stroke="#EFEFEF" stroke-width="2"/>
</svg>
