<svg width="37" height="37" viewBox="0 0 37 37" fill="none" xmlns="http://www.w3.org/2000/svg">
<path d="M22.8515 21.0833H21.9538L21.6356 20.7765C22.7492 19.481 23.4197 17.7992 23.4197 15.9697C23.4197 11.8901 20.1129 8.58331 16.0333 8.58331C11.9538 8.58331 8.64697 11.8901 8.64697 15.9697C8.64697 20.0492 11.9538 23.356 16.0333 23.356C17.8629 23.356 19.5447 22.6856 20.8402 21.5719L21.147 21.8901V22.7879L26.8288 28.4583L28.522 26.7651L22.8515 21.0833ZM16.0333 21.0833C13.2038 21.0833 10.9197 18.7992 10.9197 15.9697C10.9197 13.1401 13.2038 10.856 16.0333 10.856C18.8629 10.856 21.147 13.1401 21.147 15.9697C21.147 18.7992 18.8629 21.0833 16.0333 21.0833Z" fill="#343330"/>
</svg>
