<svg width="42" height="42" viewBox="0 0 42 42" fill="none" xmlns="http://www.w3.org/2000/svg">
<path d="M22 31.9461V31.7161C22.6452 31.3719 23.473 31.0527 24.3637 30.8041C25.477 30.4935 26.6101 30.315 27.5 30.315C28.8362 30.315 30.1456 30.4879 31.3244 30.8749L32.6364 31.3056V29.9248V14.9793C32.761 15.048 32.882 15.1203 33 15.1967V31.1443V31.8563C31.2883 31.0613 29.3422 30.7541 27.5 30.7541C26.3808 30.7541 25.0617 30.972 23.8261 31.3168C23.2029 31.4907 22.5808 31.7025 22 31.9461ZM20 31.1443V31.8214C18.2877 31.0348 16.2979 30.7541 14.5 30.7541C12.8206 30.7541 10.6725 31.2258 9 31.9424V15.1943C10.4487 14.2494 12.4792 13.8516 14.5 13.8516C16.5208 13.8516 18.5513 14.2494 20 15.1943V30.6015V31.1443ZM8.40243 32.1839C8.40254 32.1838 8.40519 32.1829 8.41003 32.1815C8.40474 32.1833 8.40232 32.184 8.40243 32.1839ZM24.3636 25.8021V15.0859L28.2727 11.0522V22.1717L24.3636 25.8021Z" fill="#EFEFEF" stroke="#EFEFEF" stroke-width="2"/>
</svg>
