<svg width="37" height="40" viewBox="0 0 37 40" fill="none" xmlns="http://www.w3.org/2000/svg">
<path d="M25.2059 24.7339C24.3341 24.7339 23.5541 25.078 22.9576 25.6171L14.7791 20.8568C14.8365 20.593 14.8824 20.3292 14.8824 20.0539C14.8824 19.7786 14.8365 19.5148 14.7791 19.251L22.8659 14.5365C23.4853 15.1101 24.2997 15.4657 25.2059 15.4657C27.11 15.4657 28.6471 13.9286 28.6471 12.0245C28.6471 10.1204 27.11 8.58331 25.2059 8.58331C23.3018 8.58331 21.7647 10.1204 21.7647 12.0245C21.7647 12.2998 21.8106 12.5636 21.8679 12.8274L13.7812 17.5418C13.1618 16.9683 12.3474 16.6127 11.4412 16.6127C9.53706 16.6127 8 18.1498 8 20.0539C8 21.958 9.53706 23.4951 11.4412 23.4951C12.3474 23.4951 13.1618 23.1395 13.7812 22.566L21.9482 27.3377C21.8909 27.5786 21.8565 27.831 21.8565 28.0833C21.8565 29.9301 23.3591 31.4327 25.2059 31.4327C27.0526 31.4327 28.5553 29.9301 28.5553 28.0833C28.5553 26.2365 27.0526 24.7339 25.2059 24.7339Z" fill="#343330"/>
</svg>
