<svg width="27" height="25" viewBox="0 0 27 25" fill="none" xmlns="http://www.w3.org/2000/svg">
<path id="Vector" d="M14.4814 23.3628V23.1327C15.1267 22.7886 15.9544 22.4694 16.8451 22.2208C17.9584 21.9101 19.0916 21.7317 19.9814 21.7317C21.3176 21.7317 22.627 21.9045 23.8059 22.2916L25.1178 22.7223V21.3415V6.39597C25.2424 6.46468 25.3634 6.53693 25.4814 6.61339V22.561V23.2729C23.7698 22.478 21.8236 22.1707 19.9814 22.1707C18.8622 22.1707 17.5431 22.3886 16.3075 22.7334C15.6843 22.9074 15.0622 23.1192 14.4814 23.3628ZM12.4814 22.561V23.2381C10.7692 22.4515 8.77931 22.1707 6.98144 22.1707C5.30209 22.1707 3.15395 22.6424 1.48145 23.3591V6.61097C2.9301 5.66608 4.96063 5.26829 6.98144 5.26829C9.00226 5.26829 11.0328 5.66608 12.4814 6.61097V22.0182V22.561ZM0.883876 23.6006C0.883987 23.6005 0.886634 23.5996 0.891476 23.5982C0.886185 23.6 0.883765 23.6007 0.883876 23.6006ZM16.8451 17.2188V6.50261L20.7542 2.46884V13.5884L16.8451 17.2188Z" stroke="#EFEFEF" stroke-width="2"/>
</svg>
