<svg width="21" height="23" viewBox="0 0 21 23" fill="none" xmlns="http://www.w3.org/2000/svg">
<path id="Vector" d="M17.2059 16.1506C16.3341 16.1506 15.5541 16.4947 14.9576 17.0338L6.77912 12.2735C6.83647 12.0097 6.88235 11.7459 6.88235 11.4706C6.88235 11.1953 6.83647 10.9315 6.77912 10.6676L14.8659 5.95323C15.4853 6.52676 16.2997 6.88235 17.2059 6.88235C19.11 6.88235 20.6471 5.34529 20.6471 3.44118C20.6471 1.53706 19.11 0 17.2059 0C15.3018 0 13.7647 1.53706 13.7647 3.44118C13.7647 3.71647 13.8106 3.98029 13.8679 4.24412L5.78118 8.95853C5.16176 8.385 4.34735 8.02941 3.44118 8.02941C1.53706 8.02941 0 9.56647 0 11.4706C0 13.3747 1.53706 14.9118 3.44118 14.9118C4.34735 14.9118 5.16176 14.5562 5.78118 13.9826L13.9482 18.7544C13.8909 18.9953 13.8565 19.2476 13.8565 19.5C13.8565 21.3468 15.3591 22.8494 17.2059 22.8494C19.0526 22.8494 20.5553 21.3468 20.5553 19.5C20.5553 17.6532 19.0526 16.1506 17.2059 16.1506Z" fill="#EFEFEF"/>
</svg>
